<?xml version="1.0" standalone="no"?>
<!DOCTYPE svg PUBLIC "-//W3C//DTD SVG 20010904//EN"
 "http://www.w3.org/TR/2001/REC-SVG-20010904/DTD/svg10.dtd">
<svg version="1.0" xmlns="http://www.w3.org/2000/svg"
 width="512.000000pt" height="512.000000pt" viewBox="0 0 512.000000 512.000000"
 preserveAspectRatio="xMidYMid meet">
<metadata>
Created by potrace 1.14, written by Peter Selinger 2001-2017
</metadata>
<g transform="translate(0.000000,512.000000) scale(0.100000,-0.100000)"
fill="#000000" stroke="none">
<path d="M3500 4015 l-255 -255 258 -257 257 -258 107 107 108 108 -70 70
c-38 38 -65 70 -59 70 39 0 200 -35 257 -55 157 -57 265 -124 384 -238 307
-294 403 -737 246 -1132 -20 -49 -41 -99 -48 -110 -141 -228 -279 -357 -491
-456 -46 -22 -129 -52 -182 -66 -84 -22 -118 -25 -252 -26 -135 0 -167 3 -252
26 -302 80 -548 278 -686 552 -154 305 -143 689 29 986 55 95 109 162 212 260
l90 86 -80 84 c-44 46 -91 97 -104 112 l-24 28 -97 -95 c-104 -102 -181 -199
-248 -314 l-43 -73 -14 28 c-52 100 -147 227 -238 318 -202 202 -449 328 -755
383 -57 10 -326 9 -394 -2 -177 -29 -362 -98 -516 -193 -41 -26 -77 -49 -80
-53 -3 -3 -25 -21 -50 -40 -66 -50 -185 -173 -244 -254 -46 -62 -126 -190
-126 -201 0 -2 -13 -32 -29 -67 -30 -66 -76 -208 -86 -268 -3 -19 -9 -55 -13
-80 -4 -25 -7 -110 -6 -190 1 -162 19 -272 66 -410 32 -93 97 -233 110 -238 4
-2 8 -8 8 -13 0 -17 81 -132 144 -204 63 -71 191 -198 206 -203 13 -5 200 193
200 211 0 5 -40 48 -88 95 -104 103 -131 134 -178 207 -113 178 -166 373 -159
590 3 120 5 135 27 230 36 163 145 353 277 486 134 133 302 228 498 280 99 27
313 33 424 13 404 -75 729 -374 834 -769 33 -125 41 -314 19 -440 -70 -394
-354 -712 -736 -826 -40 -12 -82 -23 -93 -24 -11 -2 -45 -6 -75 -10 l-55 -7
25 27 c14 15 45 47 70 71 l44 44 -107 106 -107 107 -257 -257 -256 -257 256
-256 257 -256 107 106 106 106 -76 78 c-42 43 -75 78 -74 79 1 1 35 4 75 8 73
6 91 9 172 28 343 80 662 314 840 616 39 65 60 87 60 64 0 -5 32 -57 71 -116
215 -326 567 -547 954 -597 86 -11 310 -8 385 6 505 92 915 443 1073 916 49
145 61 231 62 419 0 241 -34 387 -135 593 -210 424 -647 717 -1122 749 -16 2
-28 5 -28 7 0 3 33 38 72 78 l73 73 -105 105 c-58 58 -107 105 -110 105 -3 0
-120 -115 -260 -255z"/>
<path d="M1210 3071 c0 -84 -1 -90 -22 -97 -13 -4 -45 -21 -73 -39 l-50 -31
-50 29 c-104 62 -95 61 -127 11 -15 -25 -28 -46 -28 -49 0 -2 -21 -38 -46 -81
-31 -53 -42 -80 -35 -87 6 -6 38 -27 72 -46 l61 -36 1 -85 1 -85 -72 -40 c-56
-32 -70 -44 -66 -58 4 -14 126 -228 139 -245 1 -1 36 17 77 42 l75 44 44 -30
c24 -17 56 -35 72 -40 27 -10 27 -11 27 -99 l0 -89 150 0 150 0 0 89 0 89 33
12 c17 6 50 23 71 39 l39 28 76 -43 c41 -24 76 -42 77 -41 1 1 34 58 73 126
50 85 69 127 62 134 -6 6 -38 27 -72 46 l-61 36 -1 84 -1 85 63 38 c35 21 67
38 72 38 18 0 8 23 -64 145 l-73 125 -68 -40 c-75 -44 -97 -48 -117 -24 -7 9
-35 25 -61 37 l-48 21 0 88 0 88 -150 0 -150 0 0 -89z"/>
<path d="M3610 3071 l0 -89 -30 -10 c-16 -6 -49 -24 -72 -40 l-43 -30 -74 44
c-41 24 -76 43 -77 41 -1 -1 -34 -58 -73 -126 -50 -85 -69 -127 -62 -134 6 -6
38 -27 72 -46 l62 -36 0 -85 -1 -85 -71 -40 c-55 -31 -69 -44 -65 -58 3 -10
36 -69 73 -132 l67 -114 76 43 76 43 43 -29 c24 -17 56 -35 72 -40 27 -10 27
-11 27 -99 l0 -89 150 0 150 0 0 89 0 89 33 12 c17 6 50 23 71 39 l39 28 76
-43 c41 -24 76 -42 77 -41 11 14 144 250 144 255 0 5 -19 18 -42 30 -106 55
-101 48 -102 141 l-1 83 68 40 c37 22 70 44 73 49 3 5 -28 65 -69 134 l-73
125 -68 -40 c-75 -44 -97 -48 -117 -24 -7 9 -35 25 -61 37 l-48 21 0 88 0 88
-150 0 -150 0 0 -89z"/>
</g>
</svg>
